<?xml version="1.0" encoding="UTF-8" standalone="no"?>
<svg
   style="width:100%;height:auto;font-size:80%;font-family:inherit;margin:10px 0 10px 0;"
   class="pikchr"
   viewBox="0 0 148.32 132.628"
   version="1.1"
   id="svg3"
   sodipodi:docname="diarioHex.svg"
   inkscape:version="1.4 (e7c3feb1, 2024-10-09)"
   xmlns:inkscape="http://www.inkscape.org/namespaces/inkscape"
   xmlns:sodipodi="http://sodipodi.sourceforge.net/DTD/sodipodi-0.dtd"
   xmlns="http://www.w3.org/2000/svg"
   xmlns:svg="http://www.w3.org/2000/svg">
  <defs
     id="defs3">
    <linearGradient
       id="gradientFill-1"
       x1="0.7414425"
       x2="590.86261"
       y1="3.6658268"
       y2="593.78699"
       gradientUnits="userSpaceOnUse"
       spreadMethod="pad"
       gradientTransform="matrix(0.05547304,0,0,0.03715186,77.810856,22.384762)">
      <stop
         offset="0"
         stop-color="rgb(203,206,208)"
         stop-opacity="1"
         id="stop1" />
      <stop
         offset="1"
         stop-color="rgb(132,131,139)"
         stop-opacity="1"
         id="stop2" />
    </linearGradient>
    <linearGradient
       id="gradientFill-2"
       x1="301.02603"
       x2="703.0675"
       y1="151.4006"
       y2="553.44208"
       gradientUnits="userSpaceOnUse"
       spreadMethod="pad"
       gradientTransform="matrix(0.04494107,0,0,0.04585841,77.810856,22.384762)">
      <stop
         offset="0"
         stop-color="rgb(39,109,195)"
         stop-opacity="1"
         id="stop3" />
      <stop
         offset="1"
         stop-color="rgb(22,92,170)"
         stop-opacity="1"
         id="stop4" />
    </linearGradient>
  </defs>
  <sodipodi:namedview
     id="namedview3"
     pagecolor="#ffffff"
     bordercolor="#000000"
     borderopacity="0.25"
     inkscape:showpageshadow="2"
     inkscape:pageopacity="0.0"
     inkscape:pagecheckerboard="0"
     inkscape:deskcolor="#d1d1d1"
     inkscape:zoom="3.3326295"
     inkscape:cx="59.712608"
     inkscape:cy="66.314002"
     inkscape:window-width="1552"
     inkscape:window-height="1027"
     inkscape:window-x="120"
     inkscape:window-y="25"
     inkscape:window-maximized="0"
     inkscape:current-layer="svg3" />
  <path
     d="m 110.16,2.16 36,62.3538 H 2.16 L 38.16,2.16 Z"
     style="fill:#ffffff;stroke:#2db200;stroke-width:2.16;stroke-linejoin:round"
     id="path1"
     inkscape:transform-center-x="-82.96114"
     inkscape:transform-center-y="-49.225024" />
  <g
     id="g3"
     transform="translate(-4,4)">
    <g
       id="layer101"
       fill="#6e7ac2"
       stroke="none"
       transform="matrix(0.00376818,0,0,0.00376818,46.270238,20.452078)">
      <path
         d="m 525,6420 c -3,-6 0,-12 7,-15 26,-10 518,0 521,10 3,14 -519,19 -528,5 z"
         id="path1-0" />
      <path
         d="m 2425,6420 c -3,-6 0,-12 7,-15 25,-10 388,0 391,10 3,14 -389,19 -398,5 z"
         id="path2-2" />
      <path
         d="m 170,6350 c 0,-5 7,-10 15,-10 8,0 15,5 15,10 0,6 -7,10 -15,10 -8,0 -15,-4 -15,-10 z"
         id="path3" />
      <path
         d="m 2945,6310 c -4,-6 -3,-16 3,-22 6,-6 12,-6 17,2 4,6 3,16 -3,22 -6,6 -12,6 -17,-2 z"
         id="path4" />
      <path
         d="m 20,6160 c -7,-17 -10,-33 -8,-36 3,-2 11,9 18,26 7,17 10,33 8,36 -3,2 -11,-9 -18,-26 z"
         id="path5" />
      <path
         d="m 2895,6120 c -4,-6 -3,-16 3,-22 6,-6 12,-6 17,2 4,6 3,16 -3,22 -6,6 -12,6 -17,-2 z"
         id="path6" />
      <path
         d="m 1115,5354 c -25,-26 -2,-41 29,-20 15,9 26,21 26,26 0,16 -37,11 -55,-6 z"
         id="path7" />
      <path
         d="m 1310,5302 c 0,-10 21,-32 32,-32 16,0 8,19 -12,30 -11,6 -20,7 -20,2 z"
         id="path8" />
      <path
         d="m 1835,5240 c -4,-6 -3,-16 3,-22 6,-6 12,-6 17,2 4,6 3,16 -3,22 -6,6 -12,6 -17,-2 z"
         id="path9" />
      <path
         d="m 912,5191 c -8,-5 -12,-16 -10,-24 2,-11 7,-14 16,-8 8,5 12,16 10,24 -2,11 -7,14 -16,8 z"
         id="path10" />
      <path
         d="m 2965,5167 c -5,-17 -3,-33 3,-39 16,-16 27,18 14,45 -10,22 -10,21 -17,-6 z"
         id="path11" />
      <path
         d="m 1145,5109 c -4,-6 -4,-13 -1,-16 8,-8 36,5 36,17 0,13 -27,13 -35,-1 z"
         id="path12" />
      <path
         d="m 1835,5081 c -5,-9 29,-71 40,-71 4,0 -20,68 -27,75 -3,4 -9,2 -13,-4 z"
         id="path13" />
      <path
         d="m 870,5040 c 0,-5 9,-14 20,-20 22,-12 27,-1 8,18 -14,14 -28,16 -28,2 z"
         id="path14" />
      <path
         d="m 1017,5019 c -20,-12 -23,-29 -3,-29 17,0 40,26 29,33 -5,3 -16,1 -26,-4 z"
         id="path15" />
      <path
         d="m 1292,5011 c 4,-13 18,-16 19,-4 0,4 -5,9 -11,12 -7,2 -11,-2 -8,-8 z"
         id="path16" />
      <path
         d="m 1895,5001 c -7,-12 12,-24 25,-16 11,7 4,25 -10,25 -5,0 -11,-4 -15,-9 z"
         id="path17" />
      <path
         d="m 2005,4990 c -3,-5 0,-13 9,-16 21,-8 71,-1 71,11 0,14 -72,19 -80,5 z"
         id="path18" />
      <path
         d="m 1315,4980 c -5,-7 20,-40 31,-40 2,0 4,9 4,19 0,20 -26,36 -35,21 z"
         id="path19" />
      <path
         d="m 1390,4901 c 0,-10 7,-21 15,-25 10,-3 15,1 15,13 0,10 -7,21 -15,25 -10,3 -15,-1 -15,-13 z"
         id="path20" />
      <path
         d="m 1634,4786 c -10,-8 -15,-18 -11,-22 4,-4 15,0 24,9 22,21 12,31 -13,13 z"
         id="path21" />
      <path
         d="m 1155,4501 c -7,-12 12,-24 25,-16 11,7 4,25 -10,25 -5,0 -11,-4 -15,-9 z"
         id="path22" />
      <path
         d="m 1340,4392 c 0,-11 11,-24 25,-30 30,-14 32,-3 5,26 -25,27 -30,27 -30,4 z"
         id="path23" />
      <path
         d="m 2125,4391 c -7,-12 12,-24 25,-16 11,7 4,25 -10,25 -5,0 -11,-4 -15,-9 z"
         id="path24" />
      <path
         d="m 2785,4390 c -3,-5 0,-13 8,-16 23,-8 102,0 102,11 0,14 -102,19 -110,5 z"
         id="path25" />
      <path
         d="m 2925,4390 c -3,-5 0,-13 9,-16 21,-8 61,-1 61,11 0,14 -62,19 -70,5 z"
         id="path26" />
      <path
         d="m 3067,4384 c -10,-11 3,-24 24,-24 10,0 19,7 19,15 0,15 -31,21 -43,9 z"
         id="path27" />
      <path
         d="m 1835,4320 c -4,-6 -3,-16 3,-22 6,-6 12,-6 17,2 4,6 3,16 -3,22 -6,6 -12,6 -17,-2 z"
         id="path28" />
      <path
         d="m 3165,4280 c -4,-6 -3,-16 3,-22 6,-6 12,-6 17,2 4,6 3,16 -3,22 -6,6 -12,6 -17,-2 z"
         id="path29" />
      <path
         d="m 870,4255 c 0,-8 5,-15 10,-15 6,0 10,7 10,15 0,8 -4,15 -10,15 -5,0 -10,-7 -10,-15 z"
         id="path30" />
      <path
         d="m 4084,4237 c -7,-20 -2,-47 11,-50 14,-3 19,43 6,56 -7,7 -12,6 -17,-6 z"
         id="path31" />
      <path
         d="m 4157,4234 c -10,-11 3,-24 24,-24 23,0 25,15 3,24 -19,7 -19,7 -27,0 z"
         id="path32" />
      <path
         d="m 1520,4191 c 0,-11 9,-25 20,-31 17,-9 20,-8 20,9 0,11 -9,25 -20,31 -17,9 -20,8 -20,-9 z"
         id="path33" />
      <path
         d="m 3165,4200 c -4,-6 -3,-16 3,-22 6,-6 12,-6 17,2 4,6 3,16 -3,22 -6,6 -12,6 -17,-2 z"
         id="path34" />
      <path
         d="m 4327,4204 c -10,-11 3,-24 24,-24 10,0 19,7 19,15 0,15 -31,21 -43,9 z"
         id="path35" />
      <path
         d="m 1270,4160 c 0,-19 32,-44 43,-33 9,8 -10,40 -28,47 -10,4 -15,-1 -15,-14 z"
         id="path36" />
      <path
         d="m 1835,4150 c -4,-6 -3,-16 3,-22 6,-6 12,-6 17,2 4,6 3,16 -3,22 -6,6 -12,6 -17,-2 z"
         id="path37" />
      <path
         d="m 3150,4125 c 0,-8 5,-15 10,-15 6,0 10,7 10,15 0,8 -4,15 -10,15 -5,0 -10,-7 -10,-15 z"
         id="path38" />
      <path
         d="m 920,4120 c 0,-5 7,-10 15,-10 8,0 15,5 15,10 0,6 -7,10 -15,10 -8,0 -15,-4 -15,-10 z"
         id="path39" />
      <path
         d="m 1316,4112 c -3,-6 1,-15 8,-21 8,-7 17,-8 20,-3 3,6 -1,15 -8,21 -8,7 -17,8 -20,3 z"
         id="path40" />
      <path
         d="m 1890,4080 c 0,-5 7,-10 15,-10 8,0 15,5 15,10 0,6 -7,10 -15,10 -8,0 -15,-4 -15,-10 z"
         id="path41" />
      <path
         d="m 3085,4080 c -17,-7 -15,-9 13,-9 17,-1 32,4 32,9 0,12 -17,12 -45,0 z"
         id="path42" />
      <path
         d="m 1640,4047 c 0,-7 6,-22 14,-33 14,-18 15,-18 21,-1 7,17 -10,47 -26,47 -5,0 -9,-6 -9,-13 z"
         id="path43" />
      <path
         d="m 1665,3980 c -4,-6 -3,-16 3,-22 6,-6 12,-6 17,2 4,6 3,16 -3,22 -6,6 -12,6 -17,-2 z"
         id="path44" />
      <path
         d="m 1450,3961 c 0,-22 57,-74 71,-65 15,9 -20,57 -53,75 -14,8 -18,6 -18,-10 z"
         id="path45" />
      <path
         d="m 4595,3888 c -10,-24 -1,-153 10,-153 13,0 19,145 6,158 -7,7 -12,5 -16,-5 z"
         id="path46" />
      <path
         d="m 4075,3648 c -9,-24 -1,-103 10,-103 14,0 19,95 6,108 -7,7 -12,5 -16,-5 z"
         id="path47" />
      <path
         d="m 1242,3618 c 2,-6 14,-18 26,-26 20,-13 22,-13 22,6 0,11 -7,23 -16,26 -24,9 -36,7 -32,-6 z"
         id="path48" />
      <path
         d="m 1105,3601 c -6,-11 9,-23 19,-14 9,9 7,23 -3,23 -6,0 -12,-4 -16,-9 z"
         id="path49" />
      <path
         d="m 1320,3552 c 0,-11 11,-24 25,-30 30,-14 32,-3 5,26 -25,27 -30,27 -30,4 z"
         id="path50" />
      <path
         d="m 3545,3561 c -7,-13 17,-24 40,-19 9,1 16,8 16,13 0,14 -48,19 -56,6 z"
         id="path51" />
      <path
         d="m 1840,3526 c -13,-16 -10,-61 3,-61 5,0 15,17 22,38 10,29 10,37 0,37 -7,0 -18,-7 -25,-14 z"
         id="path52" />
      <path
         d="m 3675,3480 c -4,-6 -3,-16 3,-22 6,-6 12,-6 17,2 4,6 3,16 -3,22 -6,6 -12,6 -17,-2 z"
         id="path53" />
      <path
         d="m 1145,3369 c -4,-6 -4,-13 -1,-16 8,-8 36,5 36,17 0,13 -27,13 -35,-1 z"
         id="path54" />
      <path
         d="m 3675,3370 c -4,-6 -3,-16 3,-22 6,-6 12,-6 17,2 4,6 3,16 -3,22 -6,6 -12,6 -17,-2 z"
         id="path55" />
      <path
         d="m 870,3301 c 0,-11 9,-25 20,-31 11,-6 20,-7 20,-3 0,4 6,-2 14,-13 12,-15 17,-16 27,-7 10,10 7,14 -14,22 -15,6 -27,15 -27,20 0,6 -9,15 -20,21 -17,9 -20,8 -20,-9 z"
         id="path56" />
      <path
         d="m 3635,3290 c -3,-5 3,-10 14,-10 12,0 21,5 21,10 0,6 -6,10 -14,10 -8,0 -18,-4 -21,-10 z"
         id="path57" />
      <path
         d="m 1895,3281 c -7,-12 12,-24 25,-16 11,7 4,25 -10,25 -5,0 -11,-4 -15,-9 z"
         id="path58" />
      <path
         d="m 1300,3262 c 0,-5 9,-18 21,-30 21,-23 42,-22 33,2 -6,15 -54,40 -54,28 z"
         id="path59" />
      <path
         d="m 1525,3031 c -7,-12 12,-24 25,-16 11,7 4,25 -10,25 -5,0 -11,-4 -15,-9 z"
         id="path60" />
      <path
         d="m 1585,3031 c -7,-12 12,-24 25,-16 11,7 4,25 -10,25 -5,0 -11,-4 -15,-9 z"
         id="path61" />
      <path
         d="m 2365,2660 c -3,-6 0,-12 7,-15 26,-10 433,0 433,10 0,14 -431,19 -440,5 z"
         id="path62" />
      <path
         d="m 3607,2644 c -11,-11 3,-24 24,-24 12,0 19,5 17,13 -5,14 -31,21 -41,11 z"
         id="path63" />
      <path
         d="m 995,2611 c -6,-11 9,-23 19,-14 9,9 7,23 -3,23 -6,0 -12,-4 -16,-9 z"
         id="path64" />
      <path
         d="m 963,2593 c -7,-3 -13,-13 -13,-24 0,-21 25,-16 34,6 6,17 -4,24 -21,18 z"
         id="path65" />
      <path
         d="m 1834,2566 c -4,-10 -2,-22 4,-28 8,-8 13,-7 18,6 4,10 2,22 -4,28 -8,8 -13,7 -18,-6 z"
         id="path66" />
      <path
         d="m 3675,2570 c -4,-6 -3,-16 3,-22 6,-6 12,-6 17,2 4,6 3,16 -3,22 -6,6 -12,6 -17,-2 z"
         id="path67" />
      <path
         d="m 1426,2532 c -7,-11 34,-45 43,-36 3,2 -4,14 -16,25 -13,13 -23,17 -27,11 z"
         id="path68" />
      <path
         d="m 870,2495 c -6,-8 -8,-20 -4,-26 5,-9 11,-7 21,6 23,33 9,51 -17,20 z"
         id="path69" />
      <path
         d="m 3675,2450 c -4,-6 -3,-16 3,-22 6,-6 12,-6 17,2 4,6 3,16 -3,22 -6,6 -12,6 -17,-2 z"
         id="path70" />
      <path
         d="m 1115,2441 c -6,-11 9,-23 19,-14 9,9 7,23 -3,23 -6,0 -12,-4 -16,-9 z"
         id="path71" />
      <path
         d="m 1835,2430 c -3,-5 1,-20 9,-32 l 16,-22 v 26 c 0,29 -15,45 -25,28 z"
         id="path72" />
      <path
         d="m 1085,2419 c -10,-15 3,-25 16,-12 7,7 7,13 1,17 -6,3 -14,1 -17,-5 z"
         id="path73" />
      <path
         d="m 1570,2361 c 0,-10 7,-21 15,-25 10,-3 15,1 15,13 0,10 -7,21 -15,25 -10,3 -15,-1 -15,-13 z"
         id="path74" />
      <path
         d="m 3640,2370 c 0,-5 7,-10 15,-10 8,0 15,5 15,10 0,6 -7,10 -15,10 -8,0 -15,-4 -15,-10 z"
         id="path75" />
      <path
         d="m 1975,2350 c -3,-5 0,-13 9,-16 21,-8 71,-1 71,11 0,14 -72,19 -80,5 z"
         id="path76" />
      <path
         d="m 3445,2350 c -3,-5 0,-13 9,-16 21,-8 61,-1 61,11 0,14 -62,19 -70,5 z"
         id="path77" />
      <path
         d="m 1440,2201 c 0,-10 15,-32 33,-47 28,-23 32,-25 35,-10 4,19 -21,52 -50,67 -14,8 -18,6 -18,-10 z"
         id="path78" />
      <path
         d="m 4,1930 c 0,-52 1,-74 3,-47 2,26 2,68 0,95 -2,26 -3,4 -3,-48 z"
         id="path79" />
      <path
         d="m 2,1760 c 0,-19 2,-27 5,-17 2,9 2,25 0,35 -3,9 -5,1 -5,-18 z"
         id="path80" />
      <path
         d="m 3,1540 c 0,-30 2,-43 4,-27 2,15 2,39 0,55 -2,15 -4,2 -4,-28 z"
         id="path81" />
      <path
         d="m 1423,1278 c -23,-11 -31,-28 -13,-28 16,0 60,23 60,32 0,11 -20,9 -47,-4 z"
         id="path82" />
      <path
         d="m 1287,1173 c -36,-35 -45,-53 -29,-53 5,0 25,17 45,37 21,20 37,40 37,45 0,16 -18,7 -53,-29 z"
         id="path83" />
      <path
         d="m 1845,1130 c -3,-5 0,-13 8,-15 24,-10 212,-1 212,10 0,14 -211,19 -220,5 z"
         id="path84" />
      <path
         d="m 3060,1112 c 0,-9 44,-32 60,-32 19,0 10,17 -15,28 -31,14 -45,15 -45,4 z"
         id="path85" />
      <path
         d="m 1490,1100 c 0,-5 7,-10 15,-10 8,0 15,5 15,10 0,6 -7,10 -15,10 -8,0 -15,-4 -15,-10 z"
         id="path86" />
      <path
         d="m 1185,1039 c -4,-11 -4,-23 0,-27 7,-7 25,17 25,36 0,20 -18,14 -25,-9 z"
         id="path87" />
      <path
         d="m 3160,1052 c 0,-14 39,-46 47,-39 3,4 -2,16 -12,27 -19,21 -35,26 -35,12 z"
         id="path88" />
      <path
         d="m 22,990 c 0,-19 2,-27 5,-17 2,9 2,25 0,35 -3,9 -5,1 -5,-18 z"
         id="path89" />
      <path
         d="m 3425,990 c -4,-6 -3,-16 3,-22 6,-6 12,-6 17,2 4,6 3,16 -3,22 -6,6 -12,6 -17,-2 z"
         id="path90" />
      <path
         d="m 1146,942 c -3,-6 -2,-20 2,-33 l 9,-23 6,25 c 7,25 -6,48 -17,31 z"
         id="path91" />
      <path
         d="m 3445,920 c -4,-6 -3,-16 3,-22 6,-6 12,-6 17,2 4,6 3,16 -3,22 -6,6 -12,6 -17,-2 z"
         id="path92" />
      <path
         d="m 3265,858 c -9,-24 -2,-93 10,-93 14,0 19,85 6,98 -7,7 -12,5 -16,-5 z"
         id="path93" />
      <path
         d="m 4475,850 c -24,-27 -14,-35 15,-12 14,11 19,21 13,25 -6,4 -18,-2 -28,-13 z"
         id="path94" />
      <path
         d="m 1325,750 c -3,-5 1,-20 9,-32 l 16,-22 v 26 c 0,29 -15,45 -25,28 z"
         id="path95" />
      <path
         d="m 210,730 c 0,-5 7,-10 15,-10 8,0 15,5 15,10 0,6 -7,10 -15,10 -8,0 -15,-4 -15,-10 z"
         id="path96" />
      <path
         d="m 4105,721 c -7,-13 17,-24 40,-19 9,1 16,8 16,13 0,14 -48,19 -56,6 z"
         id="path97" />
      <path
         d="m 3240,685 c 0,-8 5,-15 10,-15 6,0 10,7 10,15 0,8 -4,15 -10,15 -5,0 -10,-7 -10,-15 z"
         id="path98" />
      <path
         d="m 1372,644 c 1,-9 9,-19 16,-22 9,-3 13,2 10,14 -1,9 -9,19 -16,22 -9,3 -13,-2 -10,-14 z"
         id="path99" />
      <path
         d="m 3135,569 c -4,-6 -4,-13 -1,-16 8,-8 36,5 36,17 0,13 -27,13 -35,-1 z"
         id="path100" />
      <path
         d="m 3080,530 c 0,-5 7,-10 15,-10 8,0 15,5 15,10 0,6 -7,10 -15,10 -8,0 -15,-4 -15,-10 z"
         id="path101" />
      <path
         d="m 1615,510 c -8,-13 20,-24 41,-16 20,8 9,26 -16,26 -10,0 -22,-5 -25,-10 z"
         id="path102" />
      <path
         d="m 2935,511 c -7,-12 12,-24 25,-16 11,7 4,25 -10,25 -5,0 -11,-4 -15,-9 z"
         id="path103" />
      <path
         d="m 2995,511 c -3,-5 -1,-12 4,-15 12,-8 41,3 41,15 0,12 -37,12 -45,0 z"
         id="path104" />
      <path
         d="m 2708,465 c -20,-27 -23,-45 -8,-45 6,0 10,4 10,10 0,5 14,16 30,25 17,9 30,20 30,25 0,20 -45,9 -62,-15 z"
         id="path105" />
      <path
         d="m 2203,473 c -7,-3 -13,-13 -13,-24 0,-21 25,-16 34,6 6,17 -4,24 -21,18 z"
         id="path106" />
      <path
         d="m 2155,390 c -4,-6 -3,-16 3,-22 6,-6 12,-6 17,2 4,6 3,16 -3,22 -6,6 -12,6 -17,-2 z"
         id="path107" />
      <path
         d="m 2434,376 c -8,-21 3,-49 16,-41 5,3 10,15 10,25 0,25 -18,36 -26,16 z"
         id="path108" />
      <path
         d="m 2170,295 c 0,-8 5,-15 10,-15 6,0 10,7 10,15 0,8 -4,15 -10,15 -5,0 -10,-7 -10,-15 z"
         id="path109" />
      <path
         d="m 2285,220 c -8,-12 20,-24 35,-15 6,3 8,11 5,16 -8,12 -32,12 -40,-1 z"
         id="path110" />
      <path
         d="m 2330,10 c -35,-7 -35,-7 10,-8 25,0 54,3 65,8 17,7 15,8 -10,8 -16,0 -46,-4 -65,-8 z"
         id="path111" />
    </g>
    <g
       id="layer102"
       fill="#8d96ce"
       stroke="none"
       transform="matrix(0.00376818,0,0,0.00376818,46.270238,20.452078)">
      <path
         d="m 395,6420 c -8,-13 20,-24 41,-16 20,8 9,26 -16,26 -10,0 -22,-5 -25,-10 z"
         id="path112" />
      <path
         d="m 2935,6421 c -3,-6 4,-15 15,-21 11,-6 20,-20 20,-32 0,-21 0,-21 15,-2 8,10 15,29 15,42 0,18 -5,22 -29,22 -17,0 -32,-4 -36,-9 z"
         id="path113" />
      <path
         d="m 275,6410 c -8,-12 20,-24 35,-15 6,3 8,11 5,16 -8,12 -32,12 -40,-1 z"
         id="path114" />
      <path
         d="m 116,6317 c -10,-7 -17,-21 -15,-31 4,-15 6,-15 23,-3 10,7 17,21 15,31 -4,15 -6,15 -23,3 z"
         id="path115" />
      <path
         d="m 2932,6249 c -10,-15 -10,-25 -3,-32 12,-12 25,12 19,38 -2,13 -6,12 -16,-6 z"
         id="path116" />
      <path
         d="m 40,6205 c 0,-8 5,-15 10,-15 6,0 10,7 10,15 0,8 -4,15 -10,15 -5,0 -10,-7 -10,-15 z"
         id="path117" />
      <path
         d="m 2912,6169 c -10,-15 -10,-25 -3,-32 12,-12 25,12 19,38 -2,13 -6,12 -16,-6 z"
         id="path118" />
      <path
         d="m 2886,6039 c -10,-28 -11,-64 -2,-69 14,-7 30,60 17,73 -7,7 -12,6 -15,-4 z"
         id="path119" />
      <path
         d="m 1965,5310 c -3,-6 0,-12 7,-15 26,-10 588,0 591,10 3,14 -589,19 -598,5 z"
         id="path120" />
      <path
         d="m 2922,5291 c 4,-13 18,-16 19,-4 0,4 -5,9 -11,12 -7,2 -11,-2 -8,-8 z"
         id="path121" />
      <path
         d="m 1025,5281 c -6,-11 9,-23 19,-14 9,9 7,23 -3,23 -6,0 -12,-4 -16,-9 z"
         id="path122" />
      <path
         d="m 1346,5272 c -3,-6 -1,-14 5,-17 15,-10 25,3 12,16 -7,7 -13,7 -17,1 z"
         id="path123" />
      <path
         d="m 2950,5245 c 0,-8 5,-15 10,-15 6,0 10,7 10,15 0,8 -4,15 -10,15 -5,0 -10,-7 -10,-15 z"
         id="path124" />
      <path
         d="m 1440,5161 c 0,-10 7,-21 15,-25 10,-3 15,1 15,13 0,10 -7,21 -15,25 -10,3 -15,-1 -15,-13 z"
         id="path125" />
      <path
         d="m 866,5134 c -18,-26 -18,-75 -1,-75 6,0 11,13 13,28 2,15 8,32 13,38 12,12 12,35 0,35 -5,0 -16,-12 -25,-26 z"
         id="path126" />
      <path
         d="m 1510,5081 c 0,-11 9,-25 20,-31 17,-9 20,-8 20,9 0,11 -9,25 -20,31 -17,9 -20,8 -20,-9 z"
         id="path127" />
      <path
         d="m 1240,5061 c 0,-10 7,-21 15,-25 10,-3 15,1 15,13 0,10 -7,21 -15,25 -10,3 -15,-1 -15,-13 z"
         id="path128" />
      <path
         d="m 1075,5051 c -6,-11 9,-23 19,-14 9,9 7,23 -3,23 -6,0 -12,-4 -16,-9 z"
         id="path129" />
      <path
         d="m 2933,5030 c -13,-15 -23,-35 -23,-44 0,-23 28,-8 45,25 28,54 14,66 -22,19 z"
         id="path130" />
      <path
         d="m 906,5011 c -5,-8 23,-39 30,-34 2,1 10,0 18,-3 8,-3 23,-1 33,4 16,9 14,11 -12,17 -17,3 -38,10 -47,15 -10,6 -19,6 -22,1 z"
         id="path131" />
      <path
         d="m 1592,4991 c 2,-7 7,-12 11,-12 12,1 9,15 -3,20 -7,2 -11,-2 -8,-8 z"
         id="path132" />
      <path
         d="m 1935,4991 c -7,-13 17,-24 40,-19 9,1 16,8 16,13 0,14 -48,19 -56,6 z"
         id="path133" />
      <path
         d="m 1616,4962 c -3,-6 -1,-14 5,-17 15,-10 25,3 12,16 -7,7 -13,7 -17,1 z"
         id="path134" />
      <path
         d="m 1350,4941 c 0,-11 9,-25 20,-31 17,-9 20,-8 20,9 0,11 -9,25 -20,31 -17,9 -20,8 -20,-9 z"
         id="path135" />
      <path
         d="m 1660,4891 c 0,-22 16,-36 24,-22 8,12 -3,41 -15,41 -5,0 -9,-9 -9,-19 z"
         id="path136" />
      <path
         d="m 1526,4772 c -9,-15 12,-35 29,-28 14,5 15,9 5,21 -14,17 -26,19 -34,7 z"
         id="path137" />
      <path
         d="m 1585,4761 c -7,-12 12,-24 25,-16 11,7 4,25 -10,25 -5,0 -11,-4 -15,-9 z"
         id="path138" />
      <path
         d="m 1230,4490 c 0,-5 7,-10 15,-10 8,0 15,5 15,10 0,6 -7,10 -15,10 -8,0 -15,-4 -15,-10 z"
         id="path139" />
      <path
         d="m 1085,4459 c -10,-15 3,-25 16,-12 7,7 7,13 1,17 -6,3 -14,1 -17,-5 z"
         id="path140" />
      <path
         d="m 1003,4403 c -7,-2 -13,-14 -13,-25 0,-19 2,-19 22,-6 39,26 32,48 -9,31 z"
         id="path141" />
      <path
         d="m 1965,4390 c -3,-5 0,-13 8,-16 24,-9 162,0 162,11 0,14 -161,19 -170,5 z"
         id="path142" />
      <path
         d="m 2985,4391 c -7,-13 17,-24 40,-19 9,1 16,8 16,13 0,14 -48,19 -56,6 z"
         id="path143" />
      <path
         d="m 3110,4376 c 0,-2 16,-20 35,-40 30,-32 36,-35 42,-20 4,12 -2,25 -21,41 -23,20 -56,31 -56,19 z"
         id="path144" />
      <path
         d="m 1400,4331 c 0,-10 7,-21 15,-25 10,-3 15,1 15,13 0,10 -7,21 -15,25 -10,3 -15,-1 -15,-13 z"
         id="path145" />
      <path
         d="m 915,4320 c -10,-11 -15,-23 -12,-27 8,-7 47,25 47,39 0,14 -16,9 -35,-12 z"
         id="path146" />
      <path
         d="m 856,4244 c -7,-19 2,-37 15,-29 12,8 12,45 0,45 -5,0 -12,-7 -15,-16 z"
         id="path147" />
      <path
         d="m 1480,4241 c 0,-10 7,-21 15,-25 10,-3 15,1 15,13 0,10 -7,21 -15,25 -10,3 -15,-1 -15,-13 z"
         id="path148" />
      <path
         d="m 4105,4241 c -7,-12 12,-24 25,-16 11,7 4,25 -10,25 -5,0 -11,-4 -15,-9 z"
         id="path149" />
      <path
         d="m 1115,4209 c -10,-15 3,-25 16,-12 7,7 7,13 1,17 -6,3 -14,1 -17,-5 z"
         id="path150" />
      <path
         d="m 4255,4210 c -8,-12 20,-24 35,-15 6,3 8,11 5,16 -8,12 -32,12 -40,-1 z"
         id="path151" />
      <path
         d="m 1240,4191 c 0,-10 7,-21 15,-25 10,-3 15,1 15,13 0,10 -7,21 -15,25 -10,3 -15,-1 -15,-13 z"
         id="path152" />
      <path
         d="m 4415,4200 c -8,-13 20,-24 41,-16 20,8 9,26 -16,26 -10,0 -22,-5 -25,-10 z"
         id="path153" />
      <path
         d="m 860,4175 c 0,-8 10,-25 22,-37 21,-21 23,-21 26,-5 4,18 -23,57 -40,57 -4,0 -8,-7 -8,-15 z"
         id="path154" />
      <path
         d="m 1050,4160 c 0,-5 7,-10 15,-10 8,0 15,5 15,10 0,6 -7,10 -15,10 -8,0 -15,-4 -15,-10 z"
         id="path155" />
      <path
         d="m 1560,4152 c 0,-17 37,-48 47,-39 6,7 -19,46 -34,51 -8,3 -13,-2 -13,-12 z"
         id="path156" />
      <path
         d="m 1000,4130 c 0,-5 7,-10 15,-10 8,0 15,5 15,10 0,6 -7,10 -15,10 -8,0 -15,-4 -15,-10 z"
         id="path157" />
      <path
         d="m 1616,4092 c -3,-6 -1,-14 5,-17 15,-10 25,3 12,16 -7,7 -13,7 -17,1 z"
         id="path158" />
      <path
         d="m 3077,4084 c -10,-11 3,-24 24,-24 10,0 19,7 19,15 0,15 -31,21 -43,9 z"
         id="path159" />
      <path
         d="m 1975,4070 c -3,-5 0,-13 8,-16 24,-9 162,0 162,11 0,14 -161,19 -170,5 z"
         id="path160" />
      <path
         d="m 2755,4070 c -3,-5 0,-13 7,-15 25,-10 238,-1 238,10 0,14 -236,19 -245,5 z"
         id="path161" />
      <path
         d="m 4075,4049 c -10,-26 -1,-399 10,-402 14,-3 19,393 6,406 -7,7 -12,5 -16,-4 z"
         id="path162" />
      <path
         d="m 1665,3997 c -9,-22 -2,-62 10,-60 6,1 11,14 13,29 4,32 -14,56 -23,31 z"
         id="path163" />
      <path
         d="m 1520,3890 c 0,-5 7,-10 15,-10 8,0 15,5 15,10 0,6 -7,10 -15,10 -8,0 -15,-4 -15,-10 z"
         id="path164" />
      <path
         d="m 4595,3739 c -10,-27 -1,-1144 10,-1144 14,0 19,1135 5,1149 -6,6 -11,4 -15,-5 z"
         id="path165" />
      <path
         d="m 1175,3641 c -8,-14 12,-23 36,-16 17,6 19,9 8,16 -18,11 -36,11 -44,0 z"
         id="path166" />
      <path
         d="m 2015,3570 c -3,-5 0,-13 8,-16 23,-8 127,0 130,11 3,14 -129,19 -138,5 z"
         id="path167" />
      <path
         d="m 3375,3570 c -3,-5 0,-13 8,-16 23,-8 102,0 102,11 0,14 -102,19 -110,5 z"
         id="path168" />
      <path
         d="m 3630,3540 c 0,-5 7,-10 15,-10 8,0 15,5 15,10 0,6 -7,10 -15,10 -8,0 -15,-4 -15,-10 z"
         id="path169" />
      <path
         d="m 1350,3522 c 0,-10 21,-32 32,-32 16,0 8,19 -12,30 -11,6 -20,7 -20,2 z"
         id="path170" />
      <path
         d="m 1430,3431 c 0,-10 7,-21 15,-25 10,-3 15,1 15,13 0,10 -7,21 -15,25 -10,3 -15,-1 -15,-13 z"
         id="path171" />
      <path
         d="m 866,3394 c -18,-26 -18,-75 -1,-75 6,0 11,13 13,28 2,15 8,32 13,38 12,12 12,35 0,35 -5,0 -16,-12 -25,-26 z"
         id="path172" />
      <path
         d="m 1195,3380 c -5,-7 20,-40 31,-40 2,0 4,9 4,19 0,20 -26,36 -35,21 z"
         id="path173" />
      <path
         d="m 1490,3362 c 0,-11 11,-24 25,-30 30,-14 32,-3 5,26 -25,27 -30,27 -30,4 z"
         id="path174" />
      <path
         d="m 1824,3367 c -7,-20 8,-69 24,-75 7,-2 9,9 5,35 -7,45 -20,63 -29,40 z"
         id="path175" />
      <path
         d="m 1051,3296 c -7,-8 -8,-17 -3,-20 6,-3 15,1 21,8 7,8 8,17 3,20 -6,3 -15,-1 -21,-8 z"
         id="path176" />
      <path
         d="m 1270,3291 c 0,-10 7,-21 15,-25 10,-3 15,1 15,13 0,10 -7,21 -15,25 -10,3 -15,-1 -15,-13 z"
         id="path177" />
      <path
         d="m 3630,3280 c 0,-5 7,-10 15,-10 8,0 15,5 15,10 0,6 -7,10 -15,10 -8,0 -15,-4 -15,-10 z"
         id="path178" />
      <path
         d="m 1580,3261 c 0,-20 26,-36 35,-21 5,7 -20,40 -31,40 -2,0 -4,-9 -4,-19 z"
         id="path179" />
      <path
         d="m 1935,3270 c -8,-13 20,-24 41,-16 20,8 9,26 -16,26 -10,0 -22,-5 -25,-10 z"
         id="path180" />
      <path
         d="m 3535,3270 c -8,-13 20,-24 41,-16 20,8 9,26 -16,26 -10,0 -22,-5 -25,-10 z"
         id="path181" />
      <path
         d="m 981,3259 c -18,-7 -22,-12 -13,-21 9,-9 18,-8 37,2 45,24 26,39 -24,19 z"
         id="path182" />
      <path
         d="m 2075,3260 c -3,-5 0,-13 8,-16 23,-8 92,0 92,11 0,14 -92,19 -100,5 z"
         id="path183" />
      <path
         d="m 3345,3260 c -3,-5 0,-13 8,-16 23,-8 92,0 92,11 0,14 -92,19 -100,5 z"
         id="path184" />
      <path
         d="m 1615,3220 c -7,-11 24,-42 35,-35 12,7 2,32 -15,39 -8,3 -17,1 -20,-4 z"
         id="path185" />
      <path
         d="m 1660,3151 c 0,-22 16,-36 24,-22 8,12 -3,41 -15,41 -5,0 -9,-9 -9,-19 z"
         id="path186" />
      <path
         d="m 1420,3122 c 0,-11 19,-37 42,-58 36,-32 43,-36 46,-20 4,18 -38,69 -70,87 -14,8 -18,6 -18,-9 z"
         id="path187" />
      <path
         d="m 1665,3100 c -4,-6 -3,-16 3,-22 6,-6 12,-6 17,2 4,6 3,16 -3,22 -6,6 -12,6 -17,-2 z"
         id="path188" />
      <path
         d="m 1122,2714 c -33,-23 -16,-38 19,-17 16,10 29,21 29,25 0,13 -24,9 -48,-8 z"
         id="path189" />
      <path
         d="m 1230,2720 c 0,-5 7,-10 15,-10 8,0 15,5 15,10 0,6 -7,10 -15,10 -8,0 -15,-4 -15,-10 z"
         id="path190" />
      <path
         d="m 1075,2679 c -10,-15 3,-25 16,-12 7,7 7,13 1,17 -6,3 -14,1 -17,-5 z"
         id="path191" />
      <path
         d="m 1955,2660 c -3,-5 0,-13 8,-16 23,-9 122,0 122,11 0,14 -122,19 -130,5 z"
         id="path192" />
      <path
         d="m 3415,2660 c -3,-5 0,-13 8,-16 23,-8 82,0 82,11 0,14 -82,19 -90,5 z"
         id="path193" />
      <path
         d="m 3565,2650 c -8,-12 20,-24 35,-15 6,3 8,11 5,16 -8,12 -32,12 -40,-1 z"
         id="path194" />
      <path
         d="m 1380,2581 c 0,-10 7,-21 15,-25 10,-3 15,1 15,13 0,10 -7,21 -15,25 -10,3 -15,-1 -15,-13 z"
         id="path195" />
      <path
         d="m 854,2466 c -8,-20 -1,-47 11,-49 6,-1 11,13 13,31 3,32 -14,45 -24,18 z"
         id="path196" />
      <path
         d="m 1530,2411 c 0,-10 7,-21 15,-25 10,-3 15,1 15,13 0,10 -7,21 -15,25 -10,3 -15,-1 -15,-13 z"
         id="path197" />
      <path
         d="m 1255,2400 c -3,-5 6,-22 21,-37 27,-27 43,-21 31,12 -8,20 -44,38 -52,25 z"
         id="path198" />
      <path
         d="m 3670,2395 c 0,-8 5,-15 10,-15 6,0 10,7 10,15 0,8 -4,15 -10,15 -5,0 -10,-7 -10,-15 z"
         id="path199" />
      <path
         d="m 3605,2361 c -7,-12 12,-24 25,-16 11,7 4,25 -10,25 -5,0 -11,-4 -15,-9 z"
         id="path200" />
      <path
         d="m 1898,2344 c 12,-8 27,-12 32,-9 17,10 1,25 -28,25 h -26 z"
         id="path201" />
      <path
         d="m 3545,2350 c -8,-12 20,-24 35,-15 6,3 8,11 5,16 -8,12 -32,12 -40,-1 z"
         id="path202" />
      <path
         d="m 2045,2340 c -3,-5 0,-13 8,-16 23,-8 127,0 130,11 3,14 -129,19 -138,5 z"
         id="path203" />
      <path
         d="m 3355,2340 c -3,-5 0,-13 8,-16 23,-8 92,0 92,11 0,14 -92,19 -100,5 z"
         id="path204" />
      <path
         d="m 1645,2268 c 17,-54 17,-99 -1,-119 -23,-26 -13,-34 15,-12 31,25 39,92 16,127 -21,32 -40,35 -30,4 z"
         id="path205" />
      <path
         d="m 1392,2250 c 1,-12 14,-30 26,-38 23,-15 24,-15 20,8 -1,12 -14,30 -26,38 -23,15 -24,15 -20,-8 z"
         id="path206" />
      <path
         d="m 3,1825 c 0,-44 2,-61 4,-37 2,23 2,59 0,80 -2,20 -4,1 -4,-43 z"
         id="path207" />
      <path
         d="m 4,1395 c 0,-77 2,-107 3,-67 2,40 2,103 0,140 -2,37 -3,4 -3,-73 z"
         id="path208" />
      <path
         d="m 1486,1305 c -11,-8 -17,-18 -13,-21 8,-9 62,11 60,22 -3,15 -27,15 -47,-1 z"
         id="path209" />
      <path
         d="m 3080,1300 c 0,-5 7,-10 15,-10 8,0 15,5 15,10 0,6 -7,10 -15,10 -8,0 -15,-4 -15,-10 z"
         id="path210" />
      <path
         d="m 1400,1260 c -8,-5 -12,-12 -8,-15 9,-9 48,4 48,16 0,12 -21,11 -40,-1 z"
         id="path211" />
      <path
         d="m 3246,1222 c -3,-6 -1,-14 5,-17 15,-10 25,3 12,16 -7,7 -13,7 -17,1 z"
         id="path212" />
      <path
         d="m 1625,1130 c -8,-13 20,-24 41,-16 20,8 9,26 -16,26 -10,0 -22,-5 -25,-10 z"
         id="path213" />
      <path
         d="m 1535,1121 c -7,-12 12,-24 25,-16 11,7 4,25 -10,25 -5,0 -11,-4 -15,-9 z"
         id="path214" />
      <path
         d="m 3050,1121 c 0,-12 39,-25 48,-16 7,7 -17,25 -35,25 -7,0 -13,-4 -13,-9 z"
         id="path215" />
      <path
         d="m 13,1055 c 0,-33 2,-45 4,-27 2,18 2,45 0,60 -2,15 -4,0 -4,-33 z"
         id="path216" />
      <path
         d="m 1422,1064 c -12,-8 -22,-24 -22,-35 0,-17 3,-18 20,-9 23,13 43,47 32,54 -5,3 -18,-2 -30,-10 z"
         id="path217" />
      <path
         d="m 1200,1055 c 0,-8 5,-15 10,-15 6,0 10,7 10,15 0,8 -4,15 -10,15 -5,0 -10,-7 -10,-15 z"
         id="path218" />
      <path
         d="m 3400,1038 c 0,-19 18,-43 25,-36 9,9 -4,48 -16,48 -5,0 -9,-6 -9,-12 z"
         id="path219" />
      <path
         d="m 4572,985 c -14,-31 -15,-45 -4,-45 9,0 32,44 32,60 0,19 -17,10 -28,-15 z"
         id="path220" />
      <path
         d="m 3220,990 c 0,-21 29,-80 39,-80 18,0 12,43 -8,68 -21,24 -31,28 -31,12 z"
         id="path221" />
      <path
         d="m 1336,931 c -14,-32 -26,-66 -26,-74 0,-20 19,-32 24,-15 2,7 11,36 21,63 9,28 19,58 22,68 3,9 1,17 -4,17 -6,0 -22,-26 -37,-59 z"
         id="path222" />
      <path
         d="m 1155,970 c -4,-6 -3,-16 3,-22 6,-6 12,-6 17,2 4,6 3,16 -3,22 -6,6 -12,6 -17,-2 z"
         id="path223" />
      <path
         d="m 3430,951 c 0,-22 16,-36 24,-22 8,12 -3,41 -15,41 -5,0 -9,-9 -9,-19 z"
         id="path224" />
      <path
         d="m 30,951 c 0,-19 23,-71 31,-71 13,0 11,17 -6,50 -15,30 -25,38 -25,21 z"
         id="path225" />
      <path
         d="m 1144,886 c -4,-10 -2,-22 4,-28 8,-8 13,-7 18,6 4,10 2,22 -4,28 -8,8 -13,7 -18,-6 z"
         id="path226" />
      <path
         d="m 3444,876 c -4,-10 -2,-22 4,-28 8,-8 13,-7 18,6 4,10 2,22 -4,28 -8,8 -13,7 -18,-6 z"
         id="path227" />
      <path
         d="m 92,841 c 4,-13 18,-16 19,-4 0,4 -5,9 -11,12 -7,2 -11,-2 -8,-8 z"
         id="path228" />
      <path
         d="m 1315,790 c -4,-6 -3,-16 3,-22 6,-6 12,-6 17,2 4,6 3,16 -3,22 -6,6 -12,6 -17,-2 z"
         id="path229" />
      <path
         d="m 4365,770 c -3,-5 -15,-10 -26,-10 -10,0 -19,-4 -19,-10 0,-5 6,-10 14,-10 8,0 18,5 21,10 3,6 15,10 26,10 10,0 19,5 19,10 0,6 -6,10 -14,10 -8,0 -18,-4 -21,-10 z"
         id="path230" />
      <path
         d="m 1134,736 c -4,-10 -2,-22 4,-28 8,-8 13,-7 18,6 4,10 2,22 -4,28 -8,8 -13,7 -18,-6 z"
         id="path231" />
      <path
         d="m 4245,730 c -8,-12 20,-24 35,-15 6,3 8,11 5,16 -8,12 -32,12 -40,-1 z"
         id="path232" />
      <path
         d="m 4195,721 c -7,-12 12,-24 25,-16 11,7 4,25 -10,25 -5,0 -11,-4 -15,-9 z"
         id="path233" />
      <path
         d="m 1350,678 c 0,-19 18,-43 25,-36 9,9 -4,48 -16,48 -5,0 -9,-6 -9,-12 z"
         id="path234" />
      <path
         d="m 3225,661 c -6,-11 9,-23 19,-14 9,9 7,23 -3,23 -6,0 -12,-4 -16,-9 z"
         id="path235" />
      <path
         d="m 3120,550 c 0,-5 7,-10 15,-10 8,0 15,5 15,10 0,6 -7,10 -15,10 -8,0 -15,-4 -15,-10 z"
         id="path236" />
      <path
         d="m 1490,532 c 0,-5 11,-15 25,-22 19,-10 28,-11 37,-2 8,8 4,14 -16,22 -33,12 -46,13 -46,2 z"
         id="path237" />
      <path
         d="m 1580,505 c 0,-11 7,-15 23,-13 12,2 22,8 22,13 0,6 -10,11 -22,13 -16,2 -23,-2 -23,-13 z"
         id="path238" />
      <path
         d="m 2955,510 c -8,-13 20,-24 41,-16 20,8 9,26 -16,26 -10,0 -22,-5 -25,-10 z"
         id="path239" />
      <path
         d="m 1765,500 c -8,-13 20,-24 41,-16 20,8 9,26 -16,26 -10,0 -22,-5 -25,-10 z"
         id="path240" />
      <path
         d="m 2248,496 c -10,-7 -18,-15 -18,-17 0,-2 34,-4 75,-4 41,0 75,3 75,8 0,4 -9,7 -19,7 -11,0 -23,5 -26,10 -9,14 -67,12 -87,-4 z"
         id="path241" />
      <path
         d="m 2835,501 c -7,-13 17,-24 40,-19 9,1 16,8 16,13 0,14 -48,19 -56,6 z"
         id="path242" />
      <path
         d="m 1840,483 c 1,-12 51,-46 57,-39 9,8 -27,46 -44,46 -7,0 -13,-3 -13,-7 z"
         id="path243" />
      <path
         d="m 2400,450 c 0,-6 7,-25 16,-42 12,-23 19,-27 27,-19 9,9 7,18 -5,38 -18,30 -38,42 -38,23 z"
         id="path244" />
      <path
         d="m 2173,425 c -3,-9 -3,-18 0,-21 9,-9 27,6 27,22 0,19 -19,18 -27,-1 z"
         id="path245" />
      <path
         d="m 2154,366 c -8,-21 -1,-49 14,-54 8,-2 12,7 12,27 0,33 -17,51 -26,27 z"
         id="path246" />
      <path
         d="m 2427,333 c -10,-9 -9,-43 2,-43 13,0 23,32 13,42 -5,5 -11,5 -15,1 z"
         id="path247" />
      <path
         d="m 2656,309 c -8,-23 -26,-93 -26,-101 0,-5 4,-8 9,-8 11,0 36,59 27,67 -3,3 -1,12 6,20 8,10 8,17 0,25 -8,8 -13,8 -16,-3 z"
         id="path248" />
      <path
         d="m 2187,283 c -11,-11 11,-38 47,-57 27,-15 39,-17 48,-8 8,8 5,14 -14,21 -15,5 -29,15 -33,20 -9,15 -41,31 -48,24 z"
         id="path249" />
      <path
         d="m 2391,266 c -7,-8 -8,-17 -3,-20 6,-3 15,1 21,8 7,8 8,17 3,20 -6,3 -15,-1 -21,-8 z"
         id="path250" />
      <path
         d="m 2325,231 c -3,-5 -1,-12 4,-15 12,-8 41,3 41,15 0,12 -37,12 -45,0 z"
         id="path251" />
      <path
         d="m 1982,164 c 1,-9 9,-19 16,-22 9,-3 13,2 10,14 -1,9 -9,19 -16,22 -9,3 -13,-2 -10,-14 z"
         id="path252" />
      <path
         d="m 2593,155 c -3,-9 -3,-18 0,-21 9,-9 27,6 27,22 0,19 -19,18 -27,-1 z"
         id="path253" />
      <path
         d="m 2455,35 c -12,-8 -52,-19 -90,-24 l -70,-8 60,-2 c 54,0 145,26 145,44 0,10 -25,4 -45,-10 z"
         id="path254" />
      <path
         d="m 2165,10 c 3,-5 27,-9 53,-9 42,1 44,2 17,9 -45,11 -77,11 -70,0 z"
         id="path255" />
    </g>
    <g
       id="layer103"
       fill="#2db200"
       stroke="none"
       transform="matrix(0.00376818,0,0,0.00376818,46.270238,20.452078)">
      <path
         d="m 4210,7114 c -36,-8 -88,-19 -116,-24 -72,-12 -253,-95 -349,-159 -99,-66 -314,-281 -377,-376 -69,-105 -121,-215 -168,-360 l -43,-130 -4,-210 c -6,-245 6,-340 63,-493 75,-202 165,-342 324,-503 181,-184 361,-290 606,-359 170,-47 437,-58 609,-24 156,30 383,128 513,220 96,69 259,230 327,325 168,233 230,445 230,784 0,375 -83,618 -298,870 -109,127 -221,220 -369,306 -195,112 -317,140 -648,145 -185,3 -249,0 -300,-12 z m 280,-661 c 53,-33 788,-866 865,-979 30,-45 32,-93 5,-148 -30,-63 -72,-86 -156,-86 h -69 l -110,113 c -60,62 -182,193 -270,292 -230,259 -376,415 -388,415 -9,0 -112,-77 -245,-183 -26,-21 -80,-60 -121,-87 -59,-40 -82,-50 -115,-50 -51,0 -113,34 -143,79 -27,40 -31,116 -9,159 19,37 109,120 251,233 66,52 164,130 218,172 54,43 108,82 120,87 34,15 133,5 167,-17 z"
         id="path256" />
    </g>
    <g
       id="layer104"
       fill="#3949ab"
       stroke="none"
       transform="matrix(0.00376818,0,0,0.00376818,46.270238,20.452078)">
      <path
         d="M 405,6433 C 231,6424 105,6342 31,6187 L -1,6120 0,3898 C 1,2675 5,1520 10,1330 20,907 21,903 119,802 235,683 200,690 697,690 c 235,0 434,4 441,8 20,13 32,71 32,160 0,73 4,91 34,155 45,95 144,195 240,243 l 69,34 h 784 784 l 76,-35 c 98,-45 201,-146 246,-243 29,-60 32,-79 37,-185 4,-89 9,-120 20,-128 24,-17 753,-4 815,14 144,42 257,131 313,247 l 31,65 2,1583 c 2,1357 0,1585 -12,1593 -12,7 -179,15 -229,11 -8,-1 -64,6 -125,14 -60,9 -121,17 -135,18 -51,2 -51,16 -57,-1231 l -6,-1153 H 2308 560 v 2010 2010 h 1153 c 633,0 1157,4 1164,8 6,4 23,77 37,162 15,85 40,196 56,247 30,95 31,116 2,129 -15,7 -2431,13 -2567,7 z"
         id="path257" />
      <path
         d="m 1126,5359 c -74,-47 -196,-145 -234,-189 -42,-50 -50,-94 -24,-136 20,-32 75,-64 109,-64 19,0 106,56 166,106 16,13 34,24 40,24 7,0 85,-79 175,-175 135,-144 169,-175 198,-181 68,-13 134,40 134,108 0,41 -37,100 -122,196 -303,337 -308,342 -365,342 -15,0 -50,-14 -77,-31 z"
         id="path258" />
      <path
         d="m 2245,5321 c -352,-6 -360,-7 -400,-51 -17,-19 -20,-36 -20,-120 0,-84 3,-103 21,-127 40,-54 58,-55 574,-61 l 476,-4 33,28 c 44,37 61,80 61,156 0,67 -23,130 -57,160 -25,23 -204,28 -688,19 z"
         id="path259" />
      <path
         d="m 1169,4510 c -41,-12 -136,-80 -217,-155 -115,-107 -128,-151 -63,-216 59,-59 106,-51 224,39 29,21 59,42 68,45 18,6 66,-40 173,-168 92,-110 180,-185 215,-185 75,0 121,43 121,112 -1,40 -38,94 -170,244 -232,265 -282,305 -351,284 z"
         id="path260" />
      <path
         d="m 2035,4401 c -181,-10 -203,-25 -212,-143 -7,-95 8,-150 48,-179 27,-19 51,-23 207,-31 226,-12 951,-2 1017,15 59,15 85,46 96,115 10,68 -3,158 -27,182 -11,11 -42,24 -69,30 -62,12 -881,21 -1060,11 z"
         id="path261" />
      <path
         d="m 1145,3630 c -55,-28 -218,-157 -255,-202 -47,-56 -49,-97 -11,-141 38,-42 87,-62 123,-48 13,5 58,34 98,65 76,57 103,67 117,42 33,-56 282,-316 318,-331 39,-16 94,-8 122,18 25,23 38,74 29,112 -7,26 -107,156 -187,240 -26,28 -79,86 -118,130 -123,137 -158,154 -236,115 z"
         id="path262" />
      <path
         d="m 1925,3577 c -22,-5 -45,-11 -52,-13 -29,-8 -47,-68 -48,-161 0,-118 13,-135 118,-153 100,-17 1234,-26 1467,-11 262,16 283,26 293,132 13,139 -10,180 -113,201 -70,14 -1606,19 -1665,5 z"
         id="path263" />
      <path
         d="m 1173,2740 c -17,-4 -51,-22 -75,-41 -117,-91 -200,-164 -220,-192 -46,-64 -20,-140 59,-173 42,-18 67,-8 158,62 39,29 79,54 89,54 9,0 38,-24 64,-52 136,-152 285,-296 314,-302 45,-9 96,17 113,58 20,47 19,75 -4,113 -21,33 -169,214 -205,249 -12,11 -52,55 -89,97 -105,118 -143,142 -204,127 z"
         id="path264" />
      <path
         d="m 2000,2670 c -159,-8 -175,-24 -175,-191 1,-84 17,-123 61,-139 46,-18 296,-25 884,-25 737,0 862,8 908,59 24,26 35,104 26,181 -8,66 -23,79 -112,103 -48,12 -170,15 -772,16 -393,1 -762,-1 -820,-4 z"
         id="path265" />
      <path
         d="m 1615,1139 c -91,-8 -133,-27 -196,-86 -58,-54 -81,-94 -103,-179 -15,-56 -14,-65 2,-125 32,-114 122,-216 217,-244 25,-8 98,-17 163,-21 64,-4 131,-12 149,-20 39,-15 63,-60 69,-126 8,-84 51,-176 114,-239 76,-78 151,-103 283,-96 132,7 214,36 265,91 54,59 87,126 102,211 28,156 31,158 235,179 134,14 167,21 203,42 72,42 114,86 144,149 23,50 28,73 28,140 0,138 -62,235 -194,302 l -68,34 -672,-3 c -369,-2 -702,-6 -741,-9 z m 755,-675 c 29,-18 60,-71 60,-105 0,-40 -32,-90 -71,-109 -48,-25 -60,-25 -109,0 -42,22 -70,63 -70,104 0,37 28,90 59,109 34,21 95,21 131,1 z"
         id="path266" />
    </g>
  </g>
  <path
     d="m 146.16,68.1138 -36,62.3542 h -72 l -36,-62.3542 z"
     style="fill:#3949ab;stroke:#2db200;stroke-width:2.16;stroke-linejoin:round"
     id="path2"
     inkscape:transform-center-x="-101.20835"
     inkscape:transform-center-y="-12.942787" />
  <g
     id="g4"
     transform="translate(-4)">
    <path
       d="m 94.219893,44.445053 c -9.039719,0 -16.367908,-4.907872 -16.367908,-10.962025 0,-6.054202 7.328189,-10.962074 16.367908,-10.962074 9.039767,0 16.367907,4.907872 16.367907,10.962074 0,6.054153 -7.32814,10.962025 -16.367907,10.962025 z m 2.505393,-17.638307 c -6.870992,0 -12.441029,3.355233 -12.441029,7.494115 0,4.138885 5.570037,7.494118 12.441029,7.494118 6.870944,0 11.941614,-2.293888 11.941614,-7.494118 0,-5.198595 -5.07067,-7.494115 -11.941614,-7.494115 z"
       fill="url(#gradientFill-1)"
       fill-rule="evenodd"
       id="path4-2"
       style="fill:url(#gradientFill-1);stroke-width:0.0453975" />
    <path
       d="m 102.77944,39.499594 c 0,0 0.99067,0.29894 1.56621,0.590165 0.19971,0.101055 0.54523,0.302711 0.79446,0.567468 0.24415,0.259311 0.36318,0.52207 0.36318,0.52207 l 3.90418,6.582629 -6.31025,0.0028 -2.95083,-5.541303 c 0,0 -0.604241,-1.038193 -0.976043,-1.339221 -0.310156,-0.251094 -0.4424,-0.340482 -0.74906,-0.340482 -0.213457,0 -1.499295,0 -1.499295,0 l 0.0013,7.217012 -5.583883,0.0023 V 29.327691 h 11.213141 c 0,0 5.10721,0.09211 5.10721,4.951135 0,4.859023 -4.88023,5.220704 -4.88023,5.220704 z m -2.42876,-6.172961 -3.380429,-0.0023 -0.0018,3.134692 3.382109,-10e-4 c 0,0 1.56621,-0.0049 1.56621,-1.594584 0,-1.621685 -1.56621,-1.536838 -1.56621,-1.536838 z"
       fill="url(#gradientFill-2)"
       fill-rule="evenodd"
       id="path5-7"
       style="fill:url(#gradientFill-2);stroke-width:0.0453975" />
  </g>
  <text
     xml:space="preserve"
     style="font-weight:bold;font-stretch:condensed;font-size:21.5742px;line-height:0.7;font-family:'Helvetica Neue';-inkscape-font-specification:'Helvetica Neue Bold Condensed';text-align:center;letter-spacing:2.71026px;text-anchor:middle;fill:#ffffff;fill-opacity:1;stroke:#ffffff;stroke-width:0.423395;stroke-linejoin:round;paint-order:stroke fill markers"
     x="73.492241"
     y="104.05456"
     id="text4"
     transform="scale(1.0081981,0.99186856)"><tspan
       sodipodi:role="line"
       x="74.847374"
       y="104.05456"
       style="font-style:normal;font-variant:normal;font-weight:normal;font-stretch:normal;line-height:0.7;font-family:Herculanum;-inkscape-font-specification:Herculanum;stroke:#ffffff;stroke-width:0.423395"
       id="tspan7">Diário</tspan></text>
</svg>
